<svg id="Calque_1" data-name="Calque 1" xmlns="http://www.w3.org/2000/svg" viewBox="0 0 357.74 357.74"><defs><style>.cls-1{fill:#a61916;}.cls-2{fill:#f4e5d2;stroke:#f4e5d2;stroke-miterlimit:10;stroke-width:0.25px;}</style></defs><title>bouton-slider</title><circle class="cls-1" cx="178.87" cy="178.87" r="178.87"/><path class="cls-2" d="M120.5,186.19a2.74,2.74,0,0,0,.81,2.17c3,3.12,6,6.22,9.06,9.35,3.7,3.83,7.38,7.68,11.07,11.51s7.42,7.69,11.12,11.54c1.94,2,3.9,4,5.8,6.08a1.11,1.11,0,0,0,2-.41,4.74,4.74,0,0,0,.2-1.35q0-15.15,0-30.3,0-23.49,0-47a3.33,3.33,0,0,0-.32-1.57c-.43-.79-1-1-1.78-.24q-6.09,6.3-12.2,12.58-6.24,6.45-12.45,12.93l-12.68,13.2A2.41,2.41,0,0,0,120.5,186.19Z" transform="translate(-7.63 -7.63)"/><path class="cls-2" d="M252.5,186.31a2.73,2.73,0,0,1-.81,2.17q-4.53,4.68-9.06,9.35-5.55,5.74-11.07,11.52t-11.12,11.53c-1.94,2-3.9,4-5.8,6.08a1.11,1.11,0,0,1-2-.41,4.68,4.68,0,0,1-.2-1.34q0-15.17,0-30.31,0-23.47,0-47a3.33,3.33,0,0,1,.32-1.57c.43-.79,1-1,1.78-.24,4.06,4.2,8.14,8.38,12.2,12.59s8.3,8.61,12.45,12.92l12.68,13.2A2.41,2.41,0,0,1,252.5,186.31Z" transform="translate(-7.63 -7.63)"/></svg>