<svg id="Calque_1" data-name="Calque 1" xmlns="http://www.w3.org/2000/svg" viewBox="0 0 353.96 353.96"><defs><style>.cls-1{fill:none;stroke-width:0.75px;}.cls-1,.cls-3{stroke:#fff;}.cls-1,.cls-3,.cls-7{stroke-miterlimit:10;}.cls-2,.cls-8{fill:#fff;}.cls-2{opacity:0.51;}.cls-10,.cls-3{fill:#1a345a;}.cls-4{fill:#b70000;}.cls-5,.cls-7{fill:#f5f5f5;}.cls-6{fill:#1d1d1b;}.cls-7{stroke:#f5f5f5;stroke-width:0.25px;}.cls-9{fill:#284d94;}</style></defs><title>icone-tremplin</title><circle class="cls-1" cx="176.98" cy="176.98" r="176.61"/><circle class="cls-2" cx="176.98" cy="176.98" r="176.61"/><path class="cls-3" d="M383.38,177.46c-.49-.37-1-.68-1.52-1,0,0-.57-.4-.89-.61-.71-.47-1.43-.93-2.15-1.36-.54-.31-1.08-.59-1.62-.88-.74-.39-1.49-.77-2.25-1.12-.55-.25-1.1-.47-1.66-.7-.77-.31-1.54-.62-2.32-.89-.56-.19-1.13-.35-1.7-.52-.79-.24-1.57-.47-2.37-.66-.58-.14-1.16-.24-1.75-.35-.79-.16-1.58-.31-2.37-.42-.6-.09-1.2-.13-1.8-.19-.79-.08-1.58-.16-2.36-.19-.62,0-1.23,0-1.85,0s-1.55,0-2.32,0-1.25.1-1.88.16-1.51.14-2.26.25-1.27.23-1.91.35-1.45.26-2.17.44-1.3.37-2,.56-1.37.38-2,.62-1.31.51-2,.77-1.29.5-1.92.79-1.31.66-2,1-1.2.59-1.79.93-1.31.83-2,1.26-1.09.67-1.61,1.05c-.68.49-1.32,1-2,1.56-.47.38-.95.72-1.4,1.12-.72.63-1.39,1.33-2.08,2-.35.35-.72.67-1.06,1q-1.5,1.62-2.87,3.41t-2.52,3.68c-.26.43-.47.87-.71,1.31-.48.84-1,1.67-1.38,2.53-.26.54-.47,1.1-.71,1.65-.33.77-.68,1.53-1,2.31-.22.61-.39,1.23-.59,1.85s-.49,1.47-.68,2.21-.28,1.32-.42,2l0,.11c-5.38-.1-12.82,2.45-23.07,9C261.83,231,213.82,342.66,205,363.7c-16.47,4.91-28.83,8.1-33.36,9.24-1,.26-1.36,1.59-.78,2.84L179,393.16a4.66,4.66,0,0,0,.75,1.15,3.48,3.48,0,0,0,2,1.2,2.11,2.11,0,0,0,1.06-.08c1.27-.42,3-1,5.2-1.74l3.57-1.23c6.47-2.22,15.39-5.37,25.87-9.27,16.75-6.23,37.46-14.37,58.36-23.69,5.23-2.33,10.47-4.73,15.66-7.2q3.9-1.85,7.75-3.74c5.13-2.52,10.18-5.1,15.1-7.73,27.06-14.44,50-30.25,59.16-45.53a2.47,2.47,0,0,0,.24-.58c0-.08,0-.18.06-.27s.07-.35.1-.55l.06-.42c0-.19,0-.39.05-.6s0-.36,0-.55,0-.4,0-.62,0-.45,0-.7v-.46c0-1.16-.12-3.82-.12-3.82h0c-.31-5.59-1.12-12.37-1.58-15.91-.15-1.14-1.21-2-2-1.61l-4.61,2.16a2.25,2.25,0,0,0-1,2.58c.52,2.61,1.11,7.26-.61,9.66-21.2,29.47-81.36,54.51-129.21,70.6,37.94-93,91.65-94.9,91.33-109.87.51.48,1.05.93,1.58,1.39l.82.7c.48.39.91.81,1.41,1.18a44.06,44.06,0,0,0,53.33-70.15Z" transform="translate(-103.82 -103.73)"/><g id="Tête_Shuss_sans_nez" data-name="Tête Shuss sans nez"><path class="cls-4" d="M363.47,250.7a10.58,10.58,0,0,1,3.81-14.25,11.48,11.48,0,0,0,7.55,16.44,44.25,44.25,0,1,0-6.51,2.25A10.47,10.47,0,0,1,363.47,250.7Z" transform="translate(-103.82 -103.73)"/><ellipse class="cls-5" cx="283.37" cy="111.39" rx="7.42" ry="5.97"/><circle class="cls-6" cx="285.84" cy="112.47" r="3.4"/><path class="cls-7" d="M336.72,197c11.6-15.26,29.39-22.61,45.66-20.57a44,44,0,0,0-53.28,70.07C322.78,231.38,325.11,212.28,336.72,197Z" transform="translate(-103.82 -103.73)"/><path class="cls-8" d="M369.69,250.15a11.52,11.52,0,0,1-2.41-13.7,10.55,10.55,0,0,0,1,18.69,45.15,45.15,0,0,0,6.51-2.25A11.46,11.46,0,0,1,369.69,250.15Z" transform="translate(-103.82 -103.73)"/></g><path class="cls-9" d="M204,367.13s55.29-134.21,87-154.6c47.33-30.4,34.88,25,35.68,31.11,2,15.69-53.11,16.06-91.65,111.33C234.1,357.23,204,367.13,204,367.13Z" transform="translate(-103.82 -103.73)"/><path class="cls-5" d="M222.4,359.15c-4,1.51-8.32,4.32-5.2-6.17,10.05-33.85,66-135.94,90.87-141.62,2-.45,4.54,24.46-1.18,34.17-5.59,9.49-53.21,40.89-78.63,101.63C228.09,347.57,224,358.53,222.4,359.15Z" transform="translate(-103.82 -103.73)"/><path class="cls-10" d="M376.5,319.33" transform="translate(-103.82 -103.73)"/><path id="SKI" class="cls-9" d="M171.24,375.78l8.15,17.38c.81,1.74,2.47,2.72,3.82,2.27,20.34-6.74,164.13-55.69,190.68-100.13,1.53-2.57-.34-18.37-1.13-24.48-.15-1.14-1.21-2-2-1.61l-4.6,2.16a2.22,2.22,0,0,0-1,2.58c.52,2.61,1.11,7.26-.62,9.66C329.75,332,189.93,368.44,172,372.94,171,373.2,170.66,374.53,171.24,375.78Z" transform="translate(-103.82 -103.73)"/><polygon class="cls-10" points="72.07 281.97 75.57 289.43 72.07 281.97 72.07 281.97"/><path class="cls-10" d="M374.35,286.73h0c.22,4.06.18,7.49-.46,8.57" transform="translate(-103.82 -103.73)"/><path class="cls-10" d="M374.35,286.73c-51.2,59.17-198.45,99-198.46,99l3.5,7.46c.81,1.74,2.47,2.72,3.82,2.27,20.34-6.74,164.13-55.69,190.68-100.13C374.53,294.22,374.57,290.79,374.35,286.73Z" transform="translate(-103.82 -103.73)"/></svg>